<svg xmlns="http://www.w3.org/2000/svg" viewBox="0 0 161.86 164.86"><defs><style>.cls-1{fill:#f1f2f2;}</style></defs><g id="Layer_2" data-name="Layer 2"><g id="Layer_1-2" data-name="Layer 1"><path class="cls-1" d="M58.54,37.08H70.72V64.47A51,51,0,0,1,41.87,74C20.1,74,3.33,57.81,3.33,36.87S20.41,0,42.7,0A44.76,44.76,0,0,1,71.24,10.42l-7.91,10.2A31.28,31.28,0,0,0,42.7,12.39c-14.06,0-25.1,10.73-25.1,24.48S28.75,61.45,42.81,61.45a33.63,33.63,0,0,0,15.73-4.58Zm103.32-.21C161.86,57.81,145,74,123,74S84.16,57.81,84.16,36.87,101,0,123,0,161.86,15.94,161.86,36.87Zm-63.43,0a24.73,24.73,0,0,0,24.79,24.58A24.48,24.48,0,1,0,98.43,36.87ZM56.56,149.45H20.94l-6.46,15.41H0L32,92H46.45L78,164.86H63Zm-5-12L38.85,106.85,25.93,137.47ZM156,92v12.39h-22.7v60.51H119.22V104.35H96.51V92Z"/></g></g></svg>