<svg xmlns="http://www.w3.org/2000/svg" viewBox="0 0 128.03 127.93"><defs><style>.cls-1{fill:#fff;}</style></defs><g id="Layer_2" data-name="Layer 2"><g id="Layer_1-2" data-name="Layer 1"><path class="cls-1" d="M127.91,7.7a9.36,9.36,0,0,0-9.4-7.7C100.33.09,82.16,0,64,0Q43.14,0,22.3,0c-4.39,0-8.79,0-13.18,0A9.06,9.06,0,0,0,0,9.3Q0,64,0,118.66a9.9,9.9,0,0,0,.39,2.7c1.19,4.12,4.63,6.56,9.19,6.57H118.38c.32,0,.64,0,1,0a9.11,9.11,0,0,0,8.69-9.07V9.12A9.72,9.72,0,0,0,127.91,7.7ZM38.1,107.94c0,1-.28,1.35-1.28,1.35q-8.38-.06-16.77,0c-1.1,0-1.31-.44-1.3-1.43,0-9.78,0-19.56,0-29.33s0-19.48,0-29.21c0-1.13.26-1.51,1.45-1.5,5.51.06,11,0,16.53,0,1,0,1.39.25,1.39,1.33Q38.07,78.55,38.1,107.94Zm-9.69-68.3a11.11,11.11,0,1,1,11.13-11A11,11,0,0,1,28.41,39.64Zm80.89,68.12c0,1.25-.41,1.54-1.57,1.53-5.39,0-10.78-.05-16.17,0-1.21,0-1.58-.38-1.58-1.58,0-10.06.07-20.12,0-30.18a36.24,36.24,0,0,0-.8-7.57,5.12,5.12,0,0,0-.15-.56c-.07-.25-.14-.5-.23-.74s-.14-.4-.22-.59,0-.11-.08-.17-.13-.28-.2-.42-.18-.34-.28-.51-.15-.24-.23-.36a3.32,3.32,0,0,0-.26-.36l-.06-.08a3.27,3.27,0,0,0-.3-.35,3.51,3.51,0,0,0-.33-.34l0,0a3.11,3.11,0,0,0-.33-.29l-.28-.22L86,64.82a4.08,4.08,0,0,0-.44-.28,4.79,4.79,0,0,0-.78-.4,2.83,2.83,0,0,0-.4-.17l-.12,0a5.05,5.05,0,0,0-.55-.18c-.23-.07-.46-.12-.69-.17l-.73-.13a12.73,12.73,0,0,0-1.56-.11,16.85,16.85,0,0,0-4.14.38c-.31.08-.6.16-.89.26l-.1,0c-.23.08-.45.17-.66.26a3.17,3.17,0,0,0-.41.21,1.42,1.42,0,0,0-.25.12,2.5,2.5,0,0,0-.35.21,4.53,4.53,0,0,0-.46.3l-.09.06-.4.31-.38.34a7.6,7.6,0,0,0-.56.58c-.13.15-.25.3-.37.46s-.23.32-.34.49l-.08.13a6.32,6.32,0,0,0-.33.56s0,0,0,0c-.07.15-.15.29-.21.44s-.23.49-.33.74-.2.54-.29.82a1.21,1.21,0,0,0,0,.18,9.67,9.67,0,0,0-.27,1c-.09.36-.16.72-.23,1.09a35,35,0,0,0-.5,6.06c-.05,9.78,0,19.56,0,29.34,0,1.56,0,1.57-1.61,1.57-5.39,0-10.78,0-16.17,0-1.19,0-1.57-.34-1.57-1.57q.06-29.16,0-58.32c0-1.56,0-1.56,1.59-1.56,5.19,0,10.38,0,15.57,0,1.1,0,1.48.3,1.44,1.42-.07,2.19,0,4.38,0,6.58.22-.31.44-.61.68-.91s.26-.34.4-.51.2-.26.31-.38.31-.37.48-.55c0,0,0,0,.07-.08l.66-.71c.22-.23.46-.46.69-.68a6.37,6.37,0,0,1,.55-.5l.3-.27a7.93,7.93,0,0,1,.65-.53,17,17,0,0,1,2.17-1.49c.26-.17.52-.32.78-.46a20,20,0,0,1,9.42-2.5h.15c.57,0,1.15-.06,1.73-.06a24.44,24.44,0,0,1,11.42,2.66l.05,0a4.71,4.71,0,0,1,.58.32l.08,0,0,0c.26.14.51.3.76.46a13.89,13.89,0,0,1,1.51,1.1,5.43,5.43,0,0,1,.58.51,1,1,0,0,1,.19.17,5.66,5.66,0,0,1,.43.42,5.11,5.11,0,0,1,.45.48,1.9,1.9,0,0,1,.19.21,7.93,7.93,0,0,1,.53.65,10.57,10.57,0,0,1,.91,1.28c.16.24.31.48.45.73l.18.31c.12.21.23.43.33.65a17,17,0,0,1,.94,2.18c.08.22.16.44.23.67a3.86,3.86,0,0,1,.17.58,5,5,0,0,1,.16.55c.1.33.18.67.26,1a55.7,55.7,0,0,1,1.46,11.57C109.39,84.44,109.25,96.1,109.3,107.76Z"/></g></g></svg>