<svg xmlns="http://www.w3.org/2000/svg" viewBox="0 0 157.29 140.81"><defs><style>.cls-1{fill:#0cf;}</style></defs><g id="Layer_2" data-name="Layer 2"><g id="Layer_1-2" data-name="Layer 1"><path class="cls-1" d="M157.29,68.88c-.12-10.54-12.25-19.79-31-25.55,4.53-20,2.45-35.91-7-41.27S95.22,3,80.41,17.15C65.32,2.87,50.43-3.53,41,2s-11.36,21.28-6.7,41.23C13.47,49.29-.12,59.36,0,70.62s13.93,21,34.83,26.66c-4.64,20.22-2.59,36.26,6.93,41.65s24.2-1,39.09-15.29c14.84,13.82,29.41,19.93,38.75,14.53,9.63-5.56,11.45-22.08,6.33-42.74C145.07,89.26,157.41,79.6,157.29,68.88ZM115.84,8.12c7,4,8,16.73,3.93,33.41a151,151,0,0,0-21.39-3.59,155.54,155.54,0,0,0-13.19-16C97.38,9.84,108.84,4.15,115.84,8.12ZM48,79.17c1.24,2.41,2.57,4.82,4,7.23q2.3,4,4.72,7.75c-4.72-.48-9.23-1.14-13.46-2C44.56,88,46.15,83.65,48,79.17Zm-.08-17c-2.07-4.85-3.83-9.57-5.25-14.07,4.59-1,9.5-1.79,14.65-2.4q-2.7,4.22-5.25,8.72C50.63,57,49.24,59.57,47.94,62.15Zm3.89,8.48c2-4.13,4.15-8.32,6.53-12.52C61,53.44,63.76,49,66.58,44.82q5.69-.39,11.65-.46c5.55-.06,11,.1,16.14.47q4.09,6,7.95,12.66c2.5,4.33,4.79,8.65,6.85,12.91-2,4.2-4.21,8.46-6.63,12.73-2.18,3.86-4.45,7.56-6.76,11.09-5.44.53-11.13.84-17,.91-4.43.05-8.76,0-13-.27-2.56-3.79-5.06-7.8-7.48-12S53.8,74.67,51.83,70.63ZM109,86.6q2.16-3.82,4.1-7.64c1.7,4,3.18,8,4.42,11.74-3.88.92-8,1.72-12.37,2.38Q107.08,89.92,109,86.6Zm4-24.78q-2.07-4-4.41-8.09t-4.9-8c5,.62,9.83,1.43,14.27,2.42C116.59,52.52,114.94,57.11,113,61.82Zm-24-24.56q-5.22-.24-10.64-.18c-2.13,0-4.25.08-6.33.18,2.8-3.72,5.63-7.17,8.45-10.3C83.25,30.09,86.11,33.54,88.93,37.26ZM44.43,8c7-4.07,18.74,1.69,31.19,14a154.76,154.76,0,0,0-13,15.94,160.67,160.67,0,0,0-21.82,3.55C36.54,24.79,37.45,12,44.43,8ZM36.52,90.75C18.52,86.33,6.78,79,6.69,70.54S18.13,54.51,36,49.7a156.2,156.2,0,0,0,7.9,21A156.06,156.06,0,0,0,36.52,90.75Zm8.53,42.36c-7.12-4-8.06-17.16-3.7-34.25a158.18,158.18,0,0,0,20.57,3,153.74,153.74,0,0,0,14.16,17.11C63.75,131.28,52.12,137.12,45.05,133.11ZM80.77,114c-3.21-3.5-6.43-7.39-9.62-11.63,2.58.08,5.21.11,7.86.08q5.82-.06,11.42-.47C87.24,106.33,84,110.35,80.77,114Zm35.48,18.42c-7,4-18.44-1.55-30.7-13.49A157,157,0,0,0,99.9,101a153.84,153.84,0,0,0,19.56-3.7C124.19,114.76,123.45,128.23,116.25,132.39Zm7.88-43.48a158.3,158.3,0,0,0-7-18.51,155.09,155.09,0,0,0,7.52-20.56c15.63,4.48,25.6,11.33,25.68,19.11S140.2,84.08,124.13,88.91Z"/><circle class="cls-1" cx="80.65" cy="69.41" r="16.5" transform="translate(-13.79 20.39) rotate(-13.28)"/></g></g></svg>